ISO-10303-21;
HEADER;
/* Generated by software containing ST-Developer
 * from STEP Tools, Inc. (www.steptools.com) 
 */

FILE_DESCRIPTION(
/* description */ (''),
/* implementation_level */ '2;1');

FILE_NAME(
/* name */ 'Plate-2966845.step',
/* time_stamp */ '2026-02-17T09:04:55-05:00',
/* author */ (''),
/* organization */ (''),
/* preprocessor_version */ 'ST-DEVELOPER v20.1',
/* originating_system */ 'Autodesk Translation Framework v14.24.0.0',
/* authorisation */ '');

FILE_SCHEMA (('AUTOMOTIVE_DESIGN { 1 0 10303 214 3 1 1 }'));
ENDSEC;

DATA;
#10=MECHANICAL_DESIGN_GEOMETRIC_PRESENTATION_REPRESENTATION('',(#13),#533);
#11=SHAPE_REPRESENTATION_RELATIONSHIP('SRR','None',#540,#12);
#12=ADVANCED_BREP_SHAPE_REPRESENTATION('',(#14),#532);
#13=STYLED_ITEM('',(#549),#14);
#14=MANIFOLD_SOLID_BREP('Cuerpo1',#313);
#15=FACE_BOUND('',#68,.T.);
#16=FACE_BOUND('',#69,.T.);
#17=FACE_BOUND('',#71,.T.);
#18=FACE_BOUND('',#72,.T.);
#19=CIRCLE('',#329,10.75);
#20=CIRCLE('',#330,10.75);
#21=CIRCLE('',#333,10.75);
#22=CIRCLE('',#334,10.75);
#23=CIRCLE('',#337,10.75);
#24=CIRCLE('',#338,10.75);
#25=CIRCLE('',#341,10.75);
#26=CIRCLE('',#342,10.75);
#27=CIRCLE('',#347,50.);
#28=CIRCLE('',#348,50.);
#29=CIRCLE('',#351,50.);
#30=CIRCLE('',#352,50.);
#31=CYLINDRICAL_SURFACE('',#328,10.75);
#32=CYLINDRICAL_SURFACE('',#332,10.75);
#33=CYLINDRICAL_SURFACE('',#336,10.75);
#34=CYLINDRICAL_SURFACE('',#340,10.75);
#35=CYLINDRICAL_SURFACE('',#346,50.);
#36=CYLINDRICAL_SURFACE('',#350,50.);
#37=FACE_OUTER_BOUND('',#53,.T.);
#38=FACE_OUTER_BOUND('',#54,.T.);
#39=FACE_OUTER_BOUND('',#55,.T.);
#40=FACE_OUTER_BOUND('',#56,.T.);
#41=FACE_OUTER_BOUND('',#57,.T.);
#42=FACE_OUTER_BOUND('',#58,.T.);
#43=FACE_OUTER_BOUND('',#59,.T.);
#44=FACE_OUTER_BOUND('',#60,.T.);
#45=FACE_OUTER_BOUND('',#61,.T.);
#46=FACE_OUTER_BOUND('',#62,.T.);
#47=FACE_OUTER_BOUND('',#63,.T.);
#48=FACE_OUTER_BOUND('',#64,.T.);
#49=FACE_OUTER_BOUND('',#65,.T.);
#50=FACE_OUTER_BOUND('',#66,.T.);
#51=FACE_OUTER_BOUND('',#67,.T.);
#52=FACE_OUTER_BOUND('',#70,.T.);
#53=EDGE_LOOP('',(#203,#204,#205,#206));
#54=EDGE_LOOP('',(#207,#208,#209,#210));
#55=EDGE_LOOP('',(#211,#212,#213,#214));
#56=EDGE_LOOP('',(#215,#216,#217,#218));
#57=EDGE_LOOP('',(#219,#220,#221,#222));
#58=EDGE_LOOP('',(#223,#224,#225,#226));
#59=EDGE_LOOP('',(#227,#228,#229,#230));
#60=EDGE_LOOP('',(#231,#232,#233,#234));
#61=EDGE_LOOP('',(#235,#236,#237,#238));
#62=EDGE_LOOP('',(#239,#240,#241,#242));
#63=EDGE_LOOP('',(#243,#244,#245,#246));
#64=EDGE_LOOP('',(#247,#248,#249,#250));
#65=EDGE_LOOP('',(#251,#252,#253,#254));
#66=EDGE_LOOP('',(#255,#256,#257,#258));
#67=EDGE_LOOP('',(#259,#260,#261,#262,#263,#264));
#68=EDGE_LOOP('',(#265,#266,#267,#268));
#69=EDGE_LOOP('',(#269,#270,#271,#272));
#70=EDGE_LOOP('',(#273,#274,#275,#276,#277,#278));
#71=EDGE_LOOP('',(#279,#280,#281,#282));
#72=EDGE_LOOP('',(#283,#284,#285,#286));
#73=LINE('',#447,#103);
#74=LINE('',#449,#104);
#75=LINE('',#451,#105);
#76=LINE('',#452,#106);
#77=LINE('',#458,#107);
#78=LINE('',#461,#108);
#79=LINE('',#463,#109);
#80=LINE('',#464,#110);
#81=LINE('',#471,#111);
#82=LINE('',#473,#112);
#83=LINE('',#475,#113);
#84=LINE('',#476,#114);
#85=LINE('',#482,#115);
#86=LINE('',#485,#116);
#87=LINE('',#487,#117);
#88=LINE('',#488,#118);
#89=LINE('',#495,#119);
#90=LINE('',#497,#120);
#91=LINE('',#499,#121);
#92=LINE('',#500,#122);
#93=LINE('',#503,#123);
#94=LINE('',#505,#124);
#95=LINE('',#506,#125);
#96=LINE('',#509,#126);
#97=LINE('',#511,#127);
#98=LINE('',#512,#128);
#99=LINE('',#518,#129);
#100=LINE('',#521,#130);
#101=LINE('',#523,#131);
#102=LINE('',#524,#132);
#103=VECTOR('',#359,10.);
#104=VECTOR('',#360,10.);
#105=VECTOR('',#361,10.);
#106=VECTOR('',#362,10.);
#107=VECTOR('',#369,10.);
#108=VECTOR('',#372,10.);
#109=VECTOR('',#373,10.);
#110=VECTOR('',#374,10.);
#111=VECTOR('',#383,10.);
#112=VECTOR('',#384,10.);
#113=VECTOR('',#385,10.);
#114=VECTOR('',#386,10.);
#115=VECTOR('',#393,10.);
#116=VECTOR('',#396,10.);
#117=VECTOR('',#397,10.);
#118=VECTOR('',#398,10.);
#119=VECTOR('',#407,10.);
#120=VECTOR('',#408,10.);
#121=VECTOR('',#409,10.);
#122=VECTOR('',#410,10.);
#123=VECTOR('',#413,10.);
#124=VECTOR('',#414,10.);
#125=VECTOR('',#415,10.);
#126=VECTOR('',#418,10.);
#127=VECTOR('',#419,10.);
#128=VECTOR('',#420,10.);
#129=VECTOR('',#427,10.);
#130=VECTOR('',#430,10.);
#131=VECTOR('',#431,10.);
#132=VECTOR('',#432,10.);
#133=VERTEX_POINT('',#445);
#134=VERTEX_POINT('',#446);
#135=VERTEX_POINT('',#448);
#136=VERTEX_POINT('',#450);
#137=VERTEX_POINT('',#454);
#138=VERTEX_POINT('',#456);
#139=VERTEX_POINT('',#460);
#140=VERTEX_POINT('',#462);
#141=VERTEX_POINT('',#469);
#142=VERTEX_POINT('',#470);
#143=VERTEX_POINT('',#472);
#144=VERTEX_POINT('',#474);
#145=VERTEX_POINT('',#478);
#146=VERTEX_POINT('',#480);
#147=VERTEX_POINT('',#484);
#148=VERTEX_POINT('',#486);
#149=VERTEX_POINT('',#493);
#150=VERTEX_POINT('',#494);
#151=VERTEX_POINT('',#496);
#152=VERTEX_POINT('',#498);
#153=VERTEX_POINT('',#502);
#154=VERTEX_POINT('',#504);
#155=VERTEX_POINT('',#508);
#156=VERTEX_POINT('',#510);
#157=VERTEX_POINT('',#514);
#158=VERTEX_POINT('',#516);
#159=VERTEX_POINT('',#520);
#160=VERTEX_POINT('',#522);
#161=EDGE_CURVE('',#133,#134,#73,.T.);
#162=EDGE_CURVE('',#134,#135,#74,.T.);
#163=EDGE_CURVE('',#136,#135,#75,.T.);
#164=EDGE_CURVE('',#133,#136,#76,.T.);
#165=EDGE_CURVE('',#137,#133,#19,.T.);
#166=EDGE_CURVE('',#138,#136,#20,.T.);
#167=EDGE_CURVE('',#137,#138,#77,.T.);
#168=EDGE_CURVE('',#139,#137,#78,.T.);
#169=EDGE_CURVE('',#140,#138,#79,.T.);
#170=EDGE_CURVE('',#139,#140,#80,.T.);
#171=EDGE_CURVE('',#134,#139,#21,.T.);
#172=EDGE_CURVE('',#135,#140,#22,.T.);
#173=EDGE_CURVE('',#141,#142,#81,.T.);
#174=EDGE_CURVE('',#142,#143,#82,.T.);
#175=EDGE_CURVE('',#144,#143,#83,.T.);
#176=EDGE_CURVE('',#141,#144,#84,.T.);
#177=EDGE_CURVE('',#145,#141,#23,.T.);
#178=EDGE_CURVE('',#146,#144,#24,.T.);
#179=EDGE_CURVE('',#145,#146,#85,.T.);
#180=EDGE_CURVE('',#147,#145,#86,.T.);
#181=EDGE_CURVE('',#148,#146,#87,.T.);
#182=EDGE_CURVE('',#147,#148,#88,.T.);
#183=EDGE_CURVE('',#142,#147,#25,.T.);
#184=EDGE_CURVE('',#143,#148,#26,.T.);
#185=EDGE_CURVE('',#149,#150,#89,.T.);
#186=EDGE_CURVE('',#149,#151,#90,.T.);
#187=EDGE_CURVE('',#152,#151,#91,.T.);
#188=EDGE_CURVE('',#150,#152,#92,.T.);
#189=EDGE_CURVE('',#150,#153,#93,.T.);
#190=EDGE_CURVE('',#154,#152,#94,.T.);
#191=EDGE_CURVE('',#153,#154,#95,.T.);
#192=EDGE_CURVE('',#153,#155,#96,.T.);
#193=EDGE_CURVE('',#156,#154,#97,.T.);
#194=EDGE_CURVE('',#155,#156,#98,.T.);
#195=EDGE_CURVE('',#157,#155,#27,.T.);
#196=EDGE_CURVE('',#158,#156,#28,.T.);
#197=EDGE_CURVE('',#157,#158,#99,.T.);
#198=EDGE_CURVE('',#157,#159,#100,.T.);
#199=EDGE_CURVE('',#160,#158,#101,.T.);
#200=EDGE_CURVE('',#159,#160,#102,.T.);
#201=EDGE_CURVE('',#149,#159,#29,.T.);
#202=EDGE_CURVE('',#151,#160,#30,.T.);
#203=ORIENTED_EDGE('',*,*,#161,.T.);
#204=ORIENTED_EDGE('',*,*,#162,.T.);
#205=ORIENTED_EDGE('',*,*,#163,.F.);
#206=ORIENTED_EDGE('',*,*,#164,.F.);
#207=ORIENTED_EDGE('',*,*,#165,.T.);
#208=ORIENTED_EDGE('',*,*,#164,.T.);
#209=ORIENTED_EDGE('',*,*,#166,.F.);
#210=ORIENTED_EDGE('',*,*,#167,.F.);
#211=ORIENTED_EDGE('',*,*,#168,.T.);
#212=ORIENTED_EDGE('',*,*,#167,.T.);
#213=ORIENTED_EDGE('',*,*,#169,.F.);
#214=ORIENTED_EDGE('',*,*,#170,.F.);
#215=ORIENTED_EDGE('',*,*,#171,.T.);
#216=ORIENTED_EDGE('',*,*,#170,.T.);
#217=ORIENTED_EDGE('',*,*,#172,.F.);
#218=ORIENTED_EDGE('',*,*,#162,.F.);
#219=ORIENTED_EDGE('',*,*,#173,.T.);
#220=ORIENTED_EDGE('',*,*,#174,.T.);
#221=ORIENTED_EDGE('',*,*,#175,.F.);
#222=ORIENTED_EDGE('',*,*,#176,.F.);
#223=ORIENTED_EDGE('',*,*,#177,.T.);
#224=ORIENTED_EDGE('',*,*,#176,.T.);
#225=ORIENTED_EDGE('',*,*,#178,.F.);
#226=ORIENTED_EDGE('',*,*,#179,.F.);
#227=ORIENTED_EDGE('',*,*,#180,.T.);
#228=ORIENTED_EDGE('',*,*,#179,.T.);
#229=ORIENTED_EDGE('',*,*,#181,.F.);
#230=ORIENTED_EDGE('',*,*,#182,.F.);
#231=ORIENTED_EDGE('',*,*,#183,.T.);
#232=ORIENTED_EDGE('',*,*,#182,.T.);
#233=ORIENTED_EDGE('',*,*,#184,.F.);
#234=ORIENTED_EDGE('',*,*,#174,.F.);
#235=ORIENTED_EDGE('',*,*,#185,.F.);
#236=ORIENTED_EDGE('',*,*,#186,.T.);
#237=ORIENTED_EDGE('',*,*,#187,.F.);
#238=ORIENTED_EDGE('',*,*,#188,.F.);
#239=ORIENTED_EDGE('',*,*,#189,.F.);
#240=ORIENTED_EDGE('',*,*,#188,.T.);
#241=ORIENTED_EDGE('',*,*,#190,.F.);
#242=ORIENTED_EDGE('',*,*,#191,.F.);
#243=ORIENTED_EDGE('',*,*,#192,.F.);
#244=ORIENTED_EDGE('',*,*,#191,.T.);
#245=ORIENTED_EDGE('',*,*,#193,.F.);
#246=ORIENTED_EDGE('',*,*,#194,.F.);
#247=ORIENTED_EDGE('',*,*,#195,.T.);
#248=ORIENTED_EDGE('',*,*,#194,.T.);
#249=ORIENTED_EDGE('',*,*,#196,.F.);
#250=ORIENTED_EDGE('',*,*,#197,.F.);
#251=ORIENTED_EDGE('',*,*,#198,.F.);
#252=ORIENTED_EDGE('',*,*,#197,.T.);
#253=ORIENTED_EDGE('',*,*,#199,.F.);
#254=ORIENTED_EDGE('',*,*,#200,.F.);
#255=ORIENTED_EDGE('',*,*,#201,.T.);
#256=ORIENTED_EDGE('',*,*,#200,.T.);
#257=ORIENTED_EDGE('',*,*,#202,.F.);
#258=ORIENTED_EDGE('',*,*,#186,.F.);
#259=ORIENTED_EDGE('',*,*,#202,.T.);
#260=ORIENTED_EDGE('',*,*,#199,.T.);
#261=ORIENTED_EDGE('',*,*,#196,.T.);
#262=ORIENTED_EDGE('',*,*,#193,.T.);
#263=ORIENTED_EDGE('',*,*,#190,.T.);
#264=ORIENTED_EDGE('',*,*,#187,.T.);
#265=ORIENTED_EDGE('',*,*,#184,.T.);
#266=ORIENTED_EDGE('',*,*,#181,.T.);
#267=ORIENTED_EDGE('',*,*,#178,.T.);
#268=ORIENTED_EDGE('',*,*,#175,.T.);
#269=ORIENTED_EDGE('',*,*,#172,.T.);
#270=ORIENTED_EDGE('',*,*,#169,.T.);
#271=ORIENTED_EDGE('',*,*,#166,.T.);
#272=ORIENTED_EDGE('',*,*,#163,.T.);
#273=ORIENTED_EDGE('',*,*,#201,.F.);
#274=ORIENTED_EDGE('',*,*,#185,.T.);
#275=ORIENTED_EDGE('',*,*,#189,.T.);
#276=ORIENTED_EDGE('',*,*,#192,.T.);
#277=ORIENTED_EDGE('',*,*,#195,.F.);
#278=ORIENTED_EDGE('',*,*,#198,.T.);
#279=ORIENTED_EDGE('',*,*,#183,.F.);
#280=ORIENTED_EDGE('',*,*,#173,.F.);
#281=ORIENTED_EDGE('',*,*,#177,.F.);
#282=ORIENTED_EDGE('',*,*,#180,.F.);
#283=ORIENTED_EDGE('',*,*,#171,.F.);
#284=ORIENTED_EDGE('',*,*,#161,.F.);
#285=ORIENTED_EDGE('',*,*,#165,.F.);
#286=ORIENTED_EDGE('',*,*,#168,.F.);
#287=PLANE('',#327);
#288=PLANE('',#331);
#289=PLANE('',#335);
#290=PLANE('',#339);
#291=PLANE('',#343);
#292=PLANE('',#344);
#293=PLANE('',#345);
#294=PLANE('',#349);
#295=PLANE('',#353);
#296=PLANE('',#354);
#297=ADVANCED_FACE('',(#37),#287,.T.);
#298=ADVANCED_FACE('',(#38),#31,.F.);
#299=ADVANCED_FACE('',(#39),#288,.T.);
#300=ADVANCED_FACE('',(#40),#32,.F.);
#301=ADVANCED_FACE('',(#41),#289,.T.);
#302=ADVANCED_FACE('',(#42),#33,.F.);
#303=ADVANCED_FACE('',(#43),#290,.T.);
#304=ADVANCED_FACE('',(#44),#34,.F.);
#305=ADVANCED_FACE('',(#45),#291,.T.);
#306=ADVANCED_FACE('',(#46),#292,.T.);
#307=ADVANCED_FACE('',(#47),#293,.T.);
#308=ADVANCED_FACE('',(#48),#35,.T.);
#309=ADVANCED_FACE('',(#49),#294,.T.);
#310=ADVANCED_FACE('',(#50),#36,.T.);
#311=ADVANCED_FACE('',(#51,#15,#16),#295,.T.);
#312=ADVANCED_FACE('',(#52,#17,#18),#296,.F.);
#313=CLOSED_SHELL('',(#297,#298,#299,#300,#301,#302,#303,#304,#305,#306,
#307,#308,#309,#310,#311,#312));
#314=DERIVED_UNIT_ELEMENT(#316,1.);
#315=DERIVED_UNIT_ELEMENT(#535,-3.);
#316=(
MASS_UNIT()
NAMED_UNIT(*)
SI_UNIT(.KILO.,.GRAM.)
);
#317=DERIVED_UNIT((#314,#315));
#318=MEASURE_REPRESENTATION_ITEM('density measure',
POSITIVE_RATIO_MEASURE(7850.),#317);
#319=PROPERTY_DEFINITION_REPRESENTATION(#324,#321);
#320=PROPERTY_DEFINITION_REPRESENTATION(#325,#322);
#321=REPRESENTATION('material name',(#323),#532);
#322=REPRESENTATION('density',(#318),#532);
#323=DESCRIPTIVE_REPRESENTATION_ITEM('Acero','Acero');
#324=PROPERTY_DEFINITION('material property','material name',#542);
#325=PROPERTY_DEFINITION('material property','density of part',#542);
#326=AXIS2_PLACEMENT_3D('',#443,#355,#356);
#327=AXIS2_PLACEMENT_3D('',#444,#357,#358);
#328=AXIS2_PLACEMENT_3D('',#453,#363,#364);
#329=AXIS2_PLACEMENT_3D('',#455,#365,#366);
#330=AXIS2_PLACEMENT_3D('',#457,#367,#368);
#331=AXIS2_PLACEMENT_3D('',#459,#370,#371);
#332=AXIS2_PLACEMENT_3D('',#465,#375,#376);
#333=AXIS2_PLACEMENT_3D('',#466,#377,#378);
#334=AXIS2_PLACEMENT_3D('',#467,#379,#380);
#335=AXIS2_PLACEMENT_3D('',#468,#381,#382);
#336=AXIS2_PLACEMENT_3D('',#477,#387,#388);
#337=AXIS2_PLACEMENT_3D('',#479,#389,#390);
#338=AXIS2_PLACEMENT_3D('',#481,#391,#392);
#339=AXIS2_PLACEMENT_3D('',#483,#394,#395);
#340=AXIS2_PLACEMENT_3D('',#489,#399,#400);
#341=AXIS2_PLACEMENT_3D('',#490,#401,#402);
#342=AXIS2_PLACEMENT_3D('',#491,#403,#404);
#343=AXIS2_PLACEMENT_3D('',#492,#405,#406);
#344=AXIS2_PLACEMENT_3D('',#501,#411,#412);
#345=AXIS2_PLACEMENT_3D('',#507,#416,#417);
#346=AXIS2_PLACEMENT_3D('',#513,#421,#422);
#347=AXIS2_PLACEMENT_3D('',#515,#423,#424);
#348=AXIS2_PLACEMENT_3D('',#517,#425,#426);
#349=AXIS2_PLACEMENT_3D('',#519,#428,#429);
#350=AXIS2_PLACEMENT_3D('',#525,#433,#434);
#351=AXIS2_PLACEMENT_3D('',#526,#435,#436);
#352=AXIS2_PLACEMENT_3D('',#527,#437,#438);
#353=AXIS2_PLACEMENT_3D('',#528,#439,#440);
#354=AXIS2_PLACEMENT_3D('',#529,#441,#442);
#355=DIRECTION('axis',(0.,0.,1.));
#356=DIRECTION('refdir',(1.,0.,0.));
#357=DIRECTION('center_axis',(0.,1.,0.));
#358=DIRECTION('ref_axis',(-1.,0.,0.));
#359=DIRECTION('',(-1.,0.,0.));
#360=DIRECTION('',(0.,0.,1.));
#361=DIRECTION('',(-1.,0.,0.));
#362=DIRECTION('',(0.,0.,1.));
#363=DIRECTION('center_axis',(0.,0.,1.));
#364=DIRECTION('ref_axis',(9.91454980130373E-15,-1.,0.));
#365=DIRECTION('center_axis',(0.,0.,-1.));
#366=DIRECTION('ref_axis',(9.91454980130373E-15,-1.,0.));
#367=DIRECTION('center_axis',(0.,0.,-1.));
#368=DIRECTION('ref_axis',(9.91454980130373E-15,-1.,0.));
#369=DIRECTION('',(0.,0.,1.));
#370=DIRECTION('center_axis',(0.,-1.,0.));
#371=DIRECTION('ref_axis',(1.,0.,0.));
#372=DIRECTION('',(1.,0.,0.));
#373=DIRECTION('',(1.,0.,0.));
#374=DIRECTION('',(0.,0.,1.));
#375=DIRECTION('center_axis',(0.,0.,1.));
#376=DIRECTION('ref_axis',(0.,1.,0.));
#377=DIRECTION('center_axis',(0.,0.,-1.));
#378=DIRECTION('ref_axis',(0.,1.,0.));
#379=DIRECTION('center_axis',(0.,0.,-1.));
#380=DIRECTION('ref_axis',(0.,1.,0.));
#381=DIRECTION('center_axis',(-4.80096443081148E-16,1.,0.));
#382=DIRECTION('ref_axis',(-1.,-4.80096443081148E-16,0.));
#383=DIRECTION('',(-1.,-4.80096443081148E-16,0.));
#384=DIRECTION('',(0.,0.,1.));
#385=DIRECTION('',(-1.,-4.80096443081148E-16,0.));
#386=DIRECTION('',(0.,0.,1.));
#387=DIRECTION('center_axis',(0.,0.,1.));
#388=DIRECTION('ref_axis',(3.30484993376791E-15,-1.,0.));
#389=DIRECTION('center_axis',(0.,0.,-1.));
#390=DIRECTION('ref_axis',(3.30484993376791E-15,-1.,0.));
#391=DIRECTION('center_axis',(0.,0.,-1.));
#392=DIRECTION('ref_axis',(3.30484993376791E-15,-1.,0.));
#393=DIRECTION('',(0.,0.,1.));
#394=DIRECTION('center_axis',(-4.80096443081148E-16,-1.,0.));
#395=DIRECTION('ref_axis',(1.,-4.80096443081148E-16,0.));
#396=DIRECTION('',(1.,-4.80096443081148E-16,0.));
#397=DIRECTION('',(1.,-4.80096443081148E-16,0.));
#398=DIRECTION('',(0.,0.,1.));
#399=DIRECTION('center_axis',(0.,0.,1.));
#400=DIRECTION('ref_axis',(0.,1.,0.));
#401=DIRECTION('center_axis',(0.,0.,-1.));
#402=DIRECTION('ref_axis',(0.,1.,0.));
#403=DIRECTION('center_axis',(0.,0.,-1.));
#404=DIRECTION('ref_axis',(0.,1.,0.));
#405=DIRECTION('center_axis',(0.,-1.,0.));
#406=DIRECTION('ref_axis',(1.,0.,0.));
#407=DIRECTION('',(-1.,0.,0.));
#408=DIRECTION('',(0.,0.,1.));
#409=DIRECTION('',(1.,0.,0.));
#410=DIRECTION('',(0.,0.,1.));
#411=DIRECTION('center_axis',(-1.,0.,0.));
#412=DIRECTION('ref_axis',(0.,-1.,0.));
#413=DIRECTION('',(0.,1.,0.));
#414=DIRECTION('',(0.,-1.,0.));
#415=DIRECTION('',(0.,0.,1.));
#416=DIRECTION('center_axis',(0.,1.,0.));
#417=DIRECTION('ref_axis',(-1.,0.,0.));
#418=DIRECTION('',(1.,0.,0.));
#419=DIRECTION('',(-1.,0.,0.));
#420=DIRECTION('',(0.,0.,1.));
#421=DIRECTION('center_axis',(0.,0.,1.));
#422=DIRECTION('ref_axis',(1.,1.4210854715202E-15,0.));
#423=DIRECTION('center_axis',(0.,0.,1.));
#424=DIRECTION('ref_axis',(1.,1.4210854715202E-15,0.));
#425=DIRECTION('center_axis',(0.,0.,1.));
#426=DIRECTION('ref_axis',(1.,1.4210854715202E-15,0.));
#427=DIRECTION('',(0.,0.,1.));
#428=DIRECTION('center_axis',(1.,-1.49903530751076E-16,0.));
#429=DIRECTION('ref_axis',(1.49903530751076E-16,1.,0.));
#430=DIRECTION('',(-1.49903530751076E-16,-1.,0.));
#431=DIRECTION('',(1.49903530751076E-16,1.,0.));
#432=DIRECTION('',(0.,0.,1.));
#433=DIRECTION('center_axis',(0.,0.,1.));
#434=DIRECTION('ref_axis',(-1.77635683940025E-16,-1.,0.));
#435=DIRECTION('center_axis',(0.,0.,1.));
#436=DIRECTION('ref_axis',(-1.77635683940025E-16,-1.,0.));
#437=DIRECTION('center_axis',(0.,0.,1.));
#438=DIRECTION('ref_axis',(-1.77635683940025E-16,-1.,0.));
#439=DIRECTION('center_axis',(0.,0.,1.));
#440=DIRECTION('ref_axis',(1.,0.,0.));
#441=DIRECTION('center_axis',(0.,0.,1.));
#442=DIRECTION('ref_axis',(1.,0.,0.));
#443=CARTESIAN_POINT('',(0.,0.,0.));
#444=CARTESIAN_POINT('Origin',(84.2500000000001,157.75,0.));
#445=CARTESIAN_POINT('',(84.2500000000001,157.75,0.));
#446=CARTESIAN_POINT('',(65.75,157.75,0.));
#447=CARTESIAN_POINT('',(65.75,157.75,0.));
#448=CARTESIAN_POINT('',(65.75,157.75,20.));
#449=CARTESIAN_POINT('',(65.75,157.75,0.));
#450=CARTESIAN_POINT('',(84.2500000000001,157.75,20.));
#451=CARTESIAN_POINT('',(65.75,157.75,20.));
#452=CARTESIAN_POINT('',(84.2500000000001,157.75,0.));
#453=CARTESIAN_POINT('Origin',(84.25,168.5,0.));
#454=CARTESIAN_POINT('',(84.2499999999999,179.25,0.));
#455=CARTESIAN_POINT('Origin',(84.25,168.5,0.));
#456=CARTESIAN_POINT('',(84.2499999999999,179.25,20.));
#457=CARTESIAN_POINT('Origin',(84.25,168.5,20.));
#458=CARTESIAN_POINT('',(84.2499999999999,179.25,0.));
#459=CARTESIAN_POINT('Origin',(65.75,179.25,0.));
#460=CARTESIAN_POINT('',(65.75,179.25,0.));
#461=CARTESIAN_POINT('',(65.75,179.25,0.));
#462=CARTESIAN_POINT('',(65.75,179.25,20.));
#463=CARTESIAN_POINT('',(65.75,179.25,20.));
#464=CARTESIAN_POINT('',(65.75,179.25,0.));
#465=CARTESIAN_POINT('Origin',(65.75,168.5,0.));
#466=CARTESIAN_POINT('Origin',(65.75,168.5,0.));
#467=CARTESIAN_POINT('Origin',(65.75,168.5,20.));
#468=CARTESIAN_POINT('Origin',(84.25,48.5,0.));
#469=CARTESIAN_POINT('',(84.25,48.5,0.));
#470=CARTESIAN_POINT('',(65.75,48.5,0.));
#471=CARTESIAN_POINT('',(65.75,48.5,0.));
#472=CARTESIAN_POINT('',(65.75,48.5,20.));
#473=CARTESIAN_POINT('',(65.75,48.5,0.));
#474=CARTESIAN_POINT('',(84.25,48.5,20.));
#475=CARTESIAN_POINT('',(65.75,48.5,20.));
#476=CARTESIAN_POINT('',(84.25,48.5,0.));
#477=CARTESIAN_POINT('Origin',(84.25,59.25,0.));
#478=CARTESIAN_POINT('',(84.25,70.,0.));
#479=CARTESIAN_POINT('Origin',(84.25,59.25,0.));
#480=CARTESIAN_POINT('',(84.25,70.,20.));
#481=CARTESIAN_POINT('Origin',(84.25,59.25,20.));
#482=CARTESIAN_POINT('',(84.25,70.,0.));
#483=CARTESIAN_POINT('Origin',(65.75,70.,0.));
#484=CARTESIAN_POINT('',(65.75,70.,0.));
#485=CARTESIAN_POINT('',(65.75,70.,0.));
#486=CARTESIAN_POINT('',(65.75,70.,20.));
#487=CARTESIAN_POINT('',(65.75,70.,20.));
#488=CARTESIAN_POINT('',(65.75,70.,0.));
#489=CARTESIAN_POINT('Origin',(65.75,59.25,0.));
#490=CARTESIAN_POINT('Origin',(65.75,59.25,0.));
#491=CARTESIAN_POINT('Origin',(65.75,59.25,20.));
#492=CARTESIAN_POINT('Origin',(0.,0.,0.));
#493=CARTESIAN_POINT('',(75.,0.,0.));
#494=CARTESIAN_POINT('',(0.,0.,0.));
#495=CARTESIAN_POINT('',(75.,0.,0.));
#496=CARTESIAN_POINT('',(75.,0.,20.));
#497=CARTESIAN_POINT('',(75.,0.,0.));
#498=CARTESIAN_POINT('',(0.,0.,20.));
#499=CARTESIAN_POINT('',(75.,0.,20.));
#500=CARTESIAN_POINT('',(0.,0.,0.));
#501=CARTESIAN_POINT('Origin',(0.,218.5,0.));
#502=CARTESIAN_POINT('',(0.,218.5,0.));
#503=CARTESIAN_POINT('',(0.,0.,0.));
#504=CARTESIAN_POINT('',(0.,218.5,20.));
#505=CARTESIAN_POINT('',(0.,0.,20.));
#506=CARTESIAN_POINT('',(0.,218.5,0.));
#507=CARTESIAN_POINT('Origin',(75.,218.5,0.));
#508=CARTESIAN_POINT('',(75.,218.5,0.));
#509=CARTESIAN_POINT('',(0.,218.5,0.));
#510=CARTESIAN_POINT('',(75.,218.5,20.));
#511=CARTESIAN_POINT('',(0.,218.5,20.));
#512=CARTESIAN_POINT('',(75.,218.5,0.));
#513=CARTESIAN_POINT('Origin',(75.,168.5,0.));
#514=CARTESIAN_POINT('',(125.,168.5,0.));
#515=CARTESIAN_POINT('Origin',(75.,168.5,0.));
#516=CARTESIAN_POINT('',(125.,168.5,20.));
#517=CARTESIAN_POINT('Origin',(75.,168.5,20.));
#518=CARTESIAN_POINT('',(125.,168.5,0.));
#519=CARTESIAN_POINT('Origin',(125.,50.,0.));
#520=CARTESIAN_POINT('',(125.,50.,0.));
#521=CARTESIAN_POINT('',(125.,168.5,0.));
#522=CARTESIAN_POINT('',(125.,50.,20.));
#523=CARTESIAN_POINT('',(125.,168.5,20.));
#524=CARTESIAN_POINT('',(125.,50.,0.));
#525=CARTESIAN_POINT('Origin',(75.,50.,0.));
#526=CARTESIAN_POINT('Origin',(75.,50.,0.));
#527=CARTESIAN_POINT('Origin',(75.,50.,20.));
#528=CARTESIAN_POINT('Origin',(62.5,109.25,20.));
#529=CARTESIAN_POINT('Origin',(62.5,109.25,0.));
#530=UNCERTAINTY_MEASURE_WITH_UNIT(LENGTH_MEASURE(0.01),#534,
'DISTANCE_ACCURACY_VALUE',
'Maximum model space distance between geometric entities at asserted c
onnectivities');
#531=UNCERTAINTY_MEASURE_WITH_UNIT(LENGTH_MEASURE(0.01),#534,
'DISTANCE_ACCURACY_VALUE',
'Maximum model space distance between geometric entities at asserted c
onnectivities');
#532=(
GEOMETRIC_REPRESENTATION_CONTEXT(3)
GLOBAL_UNCERTAINTY_ASSIGNED_CONTEXT((#530))
GLOBAL_UNIT_ASSIGNED_CONTEXT((#534,#536,#537))
REPRESENTATION_CONTEXT('','3D')
);
#533=(
GEOMETRIC_REPRESENTATION_CONTEXT(3)
GLOBAL_UNCERTAINTY_ASSIGNED_CONTEXT((#531))
GLOBAL_UNIT_ASSIGNED_CONTEXT((#534,#536,#537))
REPRESENTATION_CONTEXT('','3D')
);
#534=(
LENGTH_UNIT()
NAMED_UNIT(*)
SI_UNIT(.MILLI.,.METRE.)
);
#535=(
LENGTH_UNIT()
NAMED_UNIT(*)
SI_UNIT($,.METRE.)
);
#536=(
NAMED_UNIT(*)
PLANE_ANGLE_UNIT()
SI_UNIT($,.RADIAN.)
);
#537=(
NAMED_UNIT(*)
SI_UNIT($,.STERADIAN.)
SOLID_ANGLE_UNIT()
);
#538=SHAPE_DEFINITION_REPRESENTATION(#539,#540);
#539=PRODUCT_DEFINITION_SHAPE('',$,#542);
#540=SHAPE_REPRESENTATION('',(#326),#532);
#541=PRODUCT_DEFINITION_CONTEXT('part definition',#546,'design');
#542=PRODUCT_DEFINITION('Plate-2966845','Plate-2966845 v0',#543,#541);
#543=PRODUCT_DEFINITION_FORMATION('',$,#548);
#544=PRODUCT_RELATED_PRODUCT_CATEGORY('Plate-2966845 v0',
'Plate-2966845 v0',(#548));
#545=APPLICATION_PROTOCOL_DEFINITION('international standard',
'automotive_design',2009,#546);
#546=APPLICATION_CONTEXT(
'Core Data for Automotive Mechanical Design Process');
#547=PRODUCT_CONTEXT('part definition',#546,'mechanical');
#548=PRODUCT('Plate-2966845','Plate-2966845 v0',$,(#547));
#549=PRESENTATION_STYLE_ASSIGNMENT((#550));
#550=SURFACE_STYLE_USAGE(.BOTH.,#551);
#551=SURFACE_SIDE_STYLE('',(#552));
#552=SURFACE_STYLE_FILL_AREA(#553);
#553=FILL_AREA_STYLE('Acero - Satinado',(#554));
#554=FILL_AREA_STYLE_COLOUR('Acero - Satinado',#555);
#555=COLOUR_RGB('Acero - Satinado',0.627450980392157,0.627450980392157,
0.627450980392157);
ENDSEC;
END-ISO-10303-21;
